<svg width="32" height="32" viewBox="0 0 32 32" fill="none" xmlns="http://www.w3.org/2000/svg">
<path fill-rule="evenodd" clip-rule="evenodd" d="M13.9807 13.1663C14.526 13.0138 15.0616 12.864 15.7121 12.69C15.9348 12.6313 16.009 12.5336 15.8977 12.3577C15.4337 11.2239 14.7285 10.2856 13.7449 9.6014C12.2416 8.52626 10.5713 8.31123 8.82682 8.64355C6.69258 9.05405 4.94806 10.2074 3.63039 12.0253C2.40552 13.7065 1.81164 15.6222 2.05291 17.7529C2.25705 19.5513 3.03652 20.9979 4.40986 22.0925C5.89455 23.2654 7.58339 23.6368 9.40214 23.3827C11.6106 23.0699 13.3551 21.9166 14.6914 20.0596C14.9943 19.6389 15.2538 19.1968 15.4709 18.7351C15.7836 19.9254 16.413 20.9479 17.3267 21.7798C18.6258 22.9527 20.1662 23.4609 21.855 23.5C22.0205 23.4799 22.1882 23.4644 22.3573 23.4487C22.6812 23.4188 23.0105 23.3883 23.3397 23.3241C25.0657 22.9527 26.5689 22.1316 27.7938 20.8219C29.5197 18.9844 30.2435 16.8341 29.928 14.1952C29.6868 12.3186 28.7774 10.8916 27.3113 9.83597C25.6967 8.68264 23.915 8.48716 22.022 8.83902C19.8136 9.24953 18.1804 10.2269 16.8256 12.1035C16.2451 12.9038 15.8099 13.7497 15.5416 14.6448H9.56917C9.29079 14.6448 9.16088 14.8403 9.10521 14.9575C8.84538 15.4658 8.39997 16.4823 8.15871 17.0883C8.0288 17.4206 8.12159 17.6747 8.51133 17.6747H12.0932C12.0452 17.7454 11.9998 17.8135 11.9558 17.8793C11.8296 18.0683 11.716 18.2385 11.5921 18.398C10.7569 19.3949 9.69908 19.8641 8.43709 19.6881C6.97096 19.4731 5.95023 18.183 5.93167 16.6191C5.91311 15.0357 6.56267 13.7651 7.82466 12.905C8.8825 12.1817 10.0146 12.0058 11.1838 12.6118C11.5735 12.8073 11.7777 13.0223 12.056 13.3546C12.2881 13.6367 12.3141 13.6293 12.5636 13.5587C12.5734 13.556 12.5836 13.5531 12.5942 13.5501C13.1047 13.4113 13.5458 13.288 13.9807 13.1663ZM26.2591 15.3936C26.2627 15.4592 26.2666 15.5284 26.272 15.6026C26.1792 17.2837 25.3812 18.5348 23.915 19.3363C22.9314 19.8641 21.9107 19.9227 20.89 19.4536C19.5537 18.828 18.8485 17.2837 19.1826 15.759C19.5909 13.9215 20.7044 12.7682 22.4303 12.3577C24.1934 11.9276 25.8822 13.0223 26.2163 14.9575C26.2426 15.0959 26.2503 15.2344 26.2591 15.3936Z" fill="white"/>
</svg>
